M48
;Layer_Color=9474304
;FILE_FORMAT=2:5
INCH,LZ
;TYPE=PLATED
T1F00S00C0.02559
T2F00S00C0.02756
T3F00S00C0.03000
T4F00S00C0.03543
T5F00S00C0.04016
T6F00S00C0.04134
T7F00S00C0.05906
%
T01
X0299862Y00255
X0330059
T02
X0040039Y011811
X0059724
X0348657Y0139256
X0368342
Y0197606
X0348657
X030315Y0205343
Y0185658
T03
X0089882Y002122
X0099882
X0109882
X0119882
X0129882
Y003622
X0119882
X0109882
X0099882
X0089882
Y0086221
X0099882
X0109882
X0119882
X0129882
Y0101221
X0119882
X0109882
X0099882
X0089882
X0079882
X0069882
X0059882
Y0086221
X0069882
X0079882
Y003622
X0069882
X0059882
Y002122
X0069882
X0079882
T04
X0259Y00155
Y00255
Y00355
Y00455
Y00555
Y00655
Y00755
Y00855
Y00955
Y01055
Y01155
Y01255
X0279
Y01155
Y01055
Y00955
Y00855
Y00755
Y00655
Y00555
Y00455
Y00355
Y00255
Y00155
X0299862
X0330059Y00155
X0369697
X0379697Y00155
X0199
Y00255
Y00355
Y00455
Y00555
Y00655
Y00755
Y00855
Y00955
Y01055
Y01155
Y01255
X0179
Y01155
Y01055
Y00955
Y00855
Y00755
Y00655
Y00555
Y00455
Y00355
Y00255
Y00155
X0059882Y0182874
X0029685Y0182874
X0018484Y0161409
X0018484Y0151409
X00575Y02285
Y02385
X00875
Y02285
X0148
Y02185
Y02385
X0179Y02055
Y01955
Y01855
Y01755
Y01655
Y01555
Y01455
Y01355
X0199
Y01455
Y01555
Y01655
Y01755
Y01855
Y01955
Y02055
X0259
Y01955
Y01855
Y01755
Y01655
Y01555
Y01455
Y01355
X0279
Y01455
Y01555
Y01655
Y01755
Y01855
Y01955
Y02055
X0369697Y0215
X0379697
X0369697Y02485
X03395
T05
X03335Y00755
Y00855
Y00955
Y01055
Y01155
Y01255
X03485
Y01155
Y01055
Y00955
Y00855
Y00755
X03635
Y00855
Y00955
Y01055
Y01155
Y01255
X0079882Y0137894
X0059882Y0155512
X0040197
X0089724Y0137894
X0099567
X0109409
X0111024Y0230626
Y02385
X013189
Y0230626
X03225Y0193374
Y01855
X03485Y0168382
X0368185
X0356374Y02155
X03485
T06
X0369697Y0031496
X0379697
T07
X0022Y02035
Y02235
Y02435
M30
