G04*
G04 #@! TF.GenerationSoftware,Altium Limited,Altium Designer,21.0.9 (235)*
G04*
G04 Layer_Physical_Order=2*
G04 Layer_Color=16711680*
%FSLAX25Y25*%
%MOIN*%
G70*
G04*
G04 #@! TF.SameCoordinates,BE9E96BF-74F1-4A73-8360-73AC6F12B0A6*
G04*
G04*
G04 #@! TF.FilePolarity,Positive*
G04*
G01*
G75*
%ADD10C,0.03937*%
%ADD11C,0.03150*%
%ADD12C,0.05906*%
%ADD13O,0.09843X0.07087*%
%ADD14O,0.07087X0.09843*%
%ADD15R,0.07087X0.09843*%
%ADD16O,0.12598X0.07874*%
%ADD17R,0.04724X0.04724*%
%ADD18C,0.04724*%
%ADD19O,0.09843X0.05906*%
%ADD20R,0.09843X0.05906*%
%ADD21R,0.04724X0.04724*%
%ADD22R,0.12598X0.07874*%
%ADD23R,0.05906X0.09843*%
%ADD24O,0.05906X0.09843*%
%ADD25O,0.07874X0.12598*%
%ADD26O,0.07087X0.11811*%
%ADD27R,0.07087X0.11811*%
%ADD28O,0.10236X0.13780*%
%ADD29O,0.09843X0.07087*%
%ADD30R,0.09843X0.07087*%
%ADD31O,0.09055X0.07087*%
G36*
X151000Y243000D02*
X153000Y241000D01*
Y236000D01*
X152000Y235000D01*
X136356D01*
X135976Y235076D01*
X135555Y235250D01*
X135387Y235319D01*
X135387D01*
X135143Y235421D01*
X134881Y235455D01*
D01*
X134508Y235504D01*
X133858Y235590D01*
X129921D01*
X129761Y235569D01*
D01*
X129445Y235527D01*
X128637Y235421D01*
X127804Y235076D01*
X127423Y235000D01*
X115490D01*
X115110Y235076D01*
X114689Y235250D01*
X114521Y235319D01*
X114521D01*
X114277Y235421D01*
X114015Y235455D01*
D01*
X113642Y235504D01*
X112992Y235590D01*
X109055D01*
X108895Y235569D01*
D01*
X108579Y235527D01*
X107770Y235421D01*
X106938Y235076D01*
X106557Y235000D01*
X104000D01*
Y232993D01*
Y213198D01*
X103964Y213015D01*
X103860Y212860D01*
X79678Y188678D01*
X67000Y176000D01*
Y175169D01*
Y114666D01*
X66964Y114484D01*
X66860Y114329D01*
X64663Y112131D01*
X64075Y111543D01*
Y110712D01*
Y104783D01*
X64062Y104740D01*
X63966Y103772D01*
X63948Y103583D01*
Y103484D01*
Y98957D01*
Y98858D01*
X64062Y97701D01*
X64075Y97658D01*
D01*
Y89783D01*
X64062Y89740D01*
X63966Y88772D01*
X63948Y88583D01*
Y88484D01*
Y83957D01*
Y83858D01*
X64062Y82701D01*
X64075Y82658D01*
D01*
Y80496D01*
X64038Y80313D01*
X63935Y80158D01*
X62292Y78516D01*
X62138Y78412D01*
X61955Y78376D01*
X57331D01*
X57148Y78412D01*
X56994Y78516D01*
X55240Y80269D01*
X53486Y82023D01*
X53383Y82178D01*
X53347Y82361D01*
Y158516D01*
X53346Y158516D01*
Y159252D01*
X53346Y185630D01*
X54724Y187008D01*
X62205D01*
X63875Y188678D01*
X63875Y188678D01*
X79394Y204197D01*
X95500Y220303D01*
Y235000D01*
X84000D01*
X82500Y236500D01*
Y241000D01*
X84500Y243000D01*
D01*
X151000D01*
D01*
D02*
G37*
G36*
X64500Y247000D02*
Y236500D01*
X62500Y234500D01*
X18500D01*
X15500Y237500D01*
Y249000D01*
X18500Y252000D01*
X59500D01*
X64500Y247000D01*
D02*
G37*
G36*
X62000Y232000D02*
X64500Y229500D01*
Y221500D01*
X58500Y215500D01*
X17500D01*
X15500Y217500D01*
Y229000D01*
X18500Y232000D01*
X62000D01*
X62000Y232000D01*
D02*
G37*
G36*
X391292Y2409D02*
X2409D01*
Y253497D01*
X16452D01*
X16659Y252997D01*
X14081Y250419D01*
X13646Y249768D01*
X13493Y249000D01*
Y237500D01*
X13646Y236732D01*
X14081Y236081D01*
X16912Y233250D01*
X14081Y230419D01*
X13646Y229768D01*
X13493Y229000D01*
Y217500D01*
X13646Y216732D01*
X14081Y216081D01*
X16081Y214081D01*
X16732Y213646D01*
X17500Y213493D01*
X58500D01*
X59268Y213646D01*
X59919Y214081D01*
X65919Y220081D01*
X66354Y220732D01*
X66507Y221500D01*
Y226447D01*
X67007Y226655D01*
X70581Y223081D01*
X71232Y222646D01*
X72000Y222493D01*
X90500D01*
X91268Y222646D01*
X91919Y223081D01*
X93031Y224193D01*
X93493Y224001D01*
Y221134D01*
X77974Y205616D01*
X77974Y205616D01*
X62456Y190098D01*
X62456Y190098D01*
X61373Y189015D01*
X54724D01*
X53956Y188862D01*
X53305Y188427D01*
X51927Y187049D01*
X51492Y186398D01*
X51339Y185630D01*
X51339Y159252D01*
Y158516D01*
X51339Y158516D01*
Y82361D01*
X51378Y82167D01*
Y81969D01*
X51414Y81786D01*
X51414Y81786D01*
Y81786D01*
X51490Y81604D01*
X51492Y81593D01*
X51499Y81583D01*
X51630Y81266D01*
X51632Y81255D01*
X51638Y81245D01*
X51714Y81063D01*
X51714Y81063D01*
X51817Y80908D01*
X51957Y80768D01*
X52067Y80604D01*
X53821Y78850D01*
X53821Y78850D01*
X55575Y77096D01*
X55739Y76987D01*
X55879Y76847D01*
X56033Y76743D01*
X56216Y76668D01*
X56226Y76661D01*
X56237Y76659D01*
X56554Y76528D01*
X56563Y76522D01*
X56574Y76519D01*
X56757Y76444D01*
X56757Y76444D01*
X56757D01*
X56940Y76407D01*
X57137D01*
X57331Y76369D01*
X61955D01*
X62149Y76407D01*
X62347D01*
X62529Y76444D01*
X62529Y76444D01*
X62529D01*
X62712Y76519D01*
X62723Y76522D01*
X62733Y76528D01*
X63049Y76659D01*
X63061Y76661D01*
X63070Y76668D01*
X63253Y76743D01*
X63253Y76743D01*
X63408Y76847D01*
X63547Y76987D01*
X63712Y77096D01*
X65354Y78739D01*
X65464Y78903D01*
X65604Y79043D01*
X65707Y79198D01*
X65783Y79381D01*
X65789Y79390D01*
X65791Y79401D01*
X65923Y79718D01*
X65929Y79728D01*
X65931Y79739D01*
X66007Y79921D01*
X66043Y80104D01*
Y80302D01*
X66082Y80496D01*
Y82658D01*
X66051Y82813D01*
X66059Y82897D01*
X65955Y83957D01*
Y88484D01*
X65964Y88575D01*
X65964Y88575D01*
X66059Y89544D01*
X66051Y89628D01*
X66082Y89783D01*
Y97658D01*
X66051Y97813D01*
X66059Y97897D01*
X65955Y98957D01*
Y103484D01*
X65964Y103575D01*
X65964Y103575D01*
X66059Y104544D01*
X66051Y104628D01*
X66082Y104783D01*
Y110712D01*
X68279Y112909D01*
X68389Y113074D01*
X68529Y113214D01*
X68633Y113368D01*
X68708Y113551D01*
X68714Y113561D01*
X68717Y113572D01*
X68848Y113889D01*
X68854Y113898D01*
X68857Y113909D01*
X68932Y114092D01*
X68968Y114275D01*
Y114472D01*
X69007Y114666D01*
Y175169D01*
X81098Y187259D01*
X81098Y187259D01*
X105279Y211441D01*
X105389Y211605D01*
X105529Y211745D01*
X105632Y211900D01*
X105708Y212083D01*
X105714Y212092D01*
X105717Y212103D01*
X105848Y212420D01*
X105854Y212430D01*
X105857Y212441D01*
X105932Y212624D01*
X105968Y212806D01*
Y213004D01*
X106007Y213198D01*
Y232993D01*
X106557D01*
X106751Y233032D01*
X106949D01*
X107329Y233107D01*
X107512Y233183D01*
X107706Y233221D01*
X108294Y233465D01*
X109157Y233579D01*
X112890D01*
X113753Y233465D01*
X113921Y233396D01*
X114341Y233221D01*
X114535Y233183D01*
X114718Y233107D01*
X115098Y233032D01*
X115296D01*
X115490Y232993D01*
X127423D01*
X127617Y233032D01*
X127815D01*
X128195Y233107D01*
X128378Y233183D01*
X128572Y233221D01*
X129160Y233465D01*
X130023Y233579D01*
X133756D01*
X134619Y233465D01*
X134787Y233396D01*
X135208Y233221D01*
X135401Y233183D01*
X135584Y233107D01*
X135965Y233032D01*
X136162D01*
X136356Y232993D01*
X143039D01*
X143200Y232520D01*
X143085Y232431D01*
X142201Y231280D01*
X141646Y229939D01*
X141456Y228500D01*
X141646Y227061D01*
X142201Y225720D01*
X143085Y224569D01*
X144236Y223685D01*
X145577Y223130D01*
X147016Y222941D01*
X148984D01*
X150423Y223130D01*
X151404Y223536D01*
X323444D01*
X329036Y217944D01*
Y193056D01*
X326444Y190464D01*
X284603D01*
X283633Y190982D01*
X282520Y191320D01*
X281362Y191434D01*
X276638D01*
X275480Y191320D01*
X274367Y190982D01*
X273397Y190464D01*
X264603D01*
X263633Y190982D01*
X262520Y191320D01*
X261362Y191434D01*
X256638D01*
X255480Y191320D01*
X254367Y190982D01*
X253341Y190434D01*
X252442Y189696D01*
X251704Y188797D01*
X251155Y187771D01*
X250818Y186658D01*
X250704Y185500D01*
X250818Y184342D01*
X251155Y183229D01*
X251704Y182203D01*
X252442Y181304D01*
X253029Y180822D01*
Y180178D01*
X252442Y179696D01*
X251704Y178797D01*
X251155Y177771D01*
X250818Y176658D01*
X250704Y175500D01*
X250818Y174342D01*
X251155Y173229D01*
X251704Y172203D01*
X252442Y171304D01*
X253029Y170822D01*
Y170178D01*
X252442Y169696D01*
X251704Y168797D01*
X251155Y167771D01*
X250818Y166658D01*
X250704Y165500D01*
X250818Y164342D01*
X251155Y163229D01*
X251704Y162203D01*
X252442Y161304D01*
X253029Y160822D01*
Y160178D01*
X252442Y159696D01*
X251704Y158797D01*
X251155Y157771D01*
X250818Y156658D01*
X250704Y155500D01*
X250818Y154342D01*
X251155Y153229D01*
X251704Y152203D01*
X252442Y151304D01*
X253029Y150822D01*
Y150178D01*
X252442Y149696D01*
X251704Y148797D01*
X251155Y147771D01*
X250818Y146658D01*
X250704Y145500D01*
X250818Y144342D01*
X251155Y143229D01*
X251704Y142203D01*
X252442Y141304D01*
X253029Y140822D01*
Y140178D01*
X252442Y139696D01*
X251704Y138797D01*
X251155Y137771D01*
X250818Y136658D01*
X250704Y135500D01*
X250818Y134342D01*
X251155Y133229D01*
X251704Y132203D01*
X252442Y131304D01*
X253029Y130822D01*
Y130178D01*
X252442Y129696D01*
X251704Y128797D01*
X251155Y127771D01*
X250818Y126658D01*
X250704Y125500D01*
X250818Y124342D01*
X251155Y123229D01*
X251704Y122203D01*
X252442Y121304D01*
X253029Y120822D01*
Y120178D01*
X252442Y119696D01*
X251704Y118797D01*
X251155Y117771D01*
X250818Y116658D01*
X250704Y115500D01*
X250818Y114342D01*
X251155Y113229D01*
X251704Y112203D01*
X252442Y111304D01*
X253029Y110822D01*
Y110178D01*
X252442Y109696D01*
X251704Y108797D01*
X251155Y107771D01*
X250818Y106658D01*
X250704Y105500D01*
X250818Y104342D01*
X251155Y103229D01*
X251704Y102203D01*
X252442Y101304D01*
X253029Y100822D01*
Y100178D01*
X252442Y99696D01*
X251704Y98797D01*
X251155Y97771D01*
X250818Y96658D01*
X250704Y95500D01*
X250818Y94342D01*
X251155Y93229D01*
X251704Y92203D01*
X252442Y91304D01*
X253029Y90822D01*
Y90178D01*
X252442Y89696D01*
X251704Y88797D01*
X251155Y87771D01*
X250818Y86658D01*
X250704Y85500D01*
X250818Y84342D01*
X251155Y83229D01*
X251704Y82203D01*
X252442Y81304D01*
X253029Y80822D01*
Y80178D01*
X252442Y79696D01*
X251704Y78797D01*
X251155Y77771D01*
X250818Y76658D01*
X250704Y75500D01*
X250818Y74342D01*
X251155Y73229D01*
X251704Y72203D01*
X252442Y71304D01*
X253029Y70822D01*
Y70178D01*
X252442Y69696D01*
X251704Y68797D01*
X251155Y67771D01*
X250818Y66658D01*
X250704Y65500D01*
X250818Y64342D01*
X251155Y63229D01*
X251704Y62203D01*
X252442Y61304D01*
X253029Y60822D01*
Y60178D01*
X252442Y59696D01*
X251704Y58797D01*
X251155Y57771D01*
X250818Y56658D01*
X250704Y55500D01*
X250818Y54342D01*
X251155Y53229D01*
X251704Y52203D01*
X252442Y51304D01*
X253029Y50822D01*
Y50178D01*
X252442Y49696D01*
X251704Y48797D01*
X251155Y47771D01*
X250818Y46658D01*
X250704Y45500D01*
X250818Y44342D01*
X251155Y43229D01*
X251704Y42203D01*
X252442Y41304D01*
X253029Y40822D01*
Y40178D01*
X252442Y39696D01*
X251704Y38797D01*
X251155Y37771D01*
X250818Y36658D01*
X250704Y35500D01*
X250818Y34342D01*
X251155Y33229D01*
X251704Y32203D01*
X252442Y31304D01*
X253029Y30822D01*
Y30178D01*
X252442Y29696D01*
X251704Y28797D01*
X251155Y27771D01*
X250818Y26658D01*
X250704Y25500D01*
X250818Y24342D01*
X251155Y23229D01*
X251704Y22203D01*
X252442Y21304D01*
X253029Y20822D01*
Y20178D01*
X252442Y19696D01*
X251704Y18797D01*
X251155Y17771D01*
X250818Y16658D01*
X250704Y15500D01*
X250818Y14342D01*
X251155Y13229D01*
X251704Y12203D01*
X252442Y11304D01*
X253341Y10566D01*
X254367Y10018D01*
X255480Y9680D01*
X256638Y9566D01*
X261362D01*
X262520Y9680D01*
X263633Y10018D01*
X264603Y10536D01*
X273397D01*
X274367Y10018D01*
X275480Y9680D01*
X276638Y9566D01*
X281362D01*
X282520Y9680D01*
X283633Y10018D01*
X284659Y10566D01*
X285558Y11304D01*
X285743Y11529D01*
X294605D01*
X295705Y10685D01*
X297045Y10130D01*
X298484Y9941D01*
X301240D01*
X302679Y10130D01*
X304020Y10685D01*
X305171Y11569D01*
X306055Y12720D01*
X306610Y14061D01*
X306800Y15500D01*
X306610Y16939D01*
X306055Y18280D01*
X305171Y19431D01*
X304164Y20204D01*
X304123Y20339D01*
Y20661D01*
X304164Y20796D01*
X305171Y21569D01*
X306055Y22720D01*
X306610Y24061D01*
X306800Y25500D01*
X306610Y26939D01*
X306055Y28280D01*
X305171Y29431D01*
X304020Y30315D01*
X302679Y30870D01*
X301240Y31059D01*
X298484D01*
X297045Y30870D01*
X295705Y30315D01*
X294605Y29471D01*
X285743D01*
X285558Y29696D01*
X284971Y30178D01*
Y30822D01*
X285558Y31304D01*
X286296Y32203D01*
X286845Y33229D01*
X287182Y34342D01*
X287296Y35500D01*
X287182Y36658D01*
X286845Y37771D01*
X286296Y38797D01*
X285558Y39696D01*
X284971Y40178D01*
Y40822D01*
X285558Y41304D01*
X286296Y42203D01*
X286845Y43229D01*
X287182Y44342D01*
X287296Y45500D01*
X287182Y46658D01*
X286845Y47771D01*
X286296Y48797D01*
X285558Y49696D01*
X284971Y50178D01*
Y50822D01*
X285558Y51304D01*
X286296Y52203D01*
X286845Y53229D01*
X287182Y54342D01*
X287296Y55500D01*
X287182Y56658D01*
X286845Y57771D01*
X286296Y58797D01*
X285558Y59696D01*
X284971Y60178D01*
Y60822D01*
X285558Y61304D01*
X286296Y62203D01*
X286845Y63229D01*
X287182Y64342D01*
X287296Y65500D01*
X287182Y66658D01*
X286845Y67771D01*
X286296Y68797D01*
X285558Y69696D01*
X284971Y70178D01*
Y70822D01*
X285558Y71304D01*
X285743Y71529D01*
X326757D01*
X326942Y71304D01*
X327841Y70566D01*
X328867Y70018D01*
X329980Y69680D01*
X331138Y69566D01*
X335862D01*
X337020Y69680D01*
X338133Y70018D01*
X339159Y70566D01*
X340058Y71304D01*
X340082Y71333D01*
X340756Y71366D01*
X342085Y70038D01*
X342736Y69602D01*
X343504Y69450D01*
X354035D01*
X354803Y69602D01*
X355455Y70038D01*
X356419Y71002D01*
X356854Y71653D01*
X357007Y72421D01*
Y202000D01*
X356854Y202768D01*
X356419Y203419D01*
X353507Y206331D01*
Y212850D01*
X353481Y212980D01*
X353490Y213112D01*
X353421Y213633D01*
Y217367D01*
X353490Y217888D01*
X353481Y218020D01*
X353507Y218150D01*
Y245500D01*
X353354Y246268D01*
X352919Y246919D01*
X346841Y252997D01*
X347048Y253497D01*
X364956D01*
X365125Y252997D01*
X364388Y252431D01*
X363504Y251280D01*
X362949Y249939D01*
X362759Y248500D01*
X362949Y247061D01*
X363504Y245720D01*
X364388Y244569D01*
X365539Y243685D01*
X365726Y243608D01*
Y220257D01*
X364882Y219158D01*
X364327Y217817D01*
X364138Y216378D01*
Y213622D01*
X364327Y212183D01*
X364882Y210842D01*
X365766Y209691D01*
X366917Y208807D01*
X368258Y208252D01*
X369697Y208063D01*
X371136Y208252D01*
X372477Y208807D01*
X373628Y209691D01*
X374511Y210842D01*
X375067Y212183D01*
X375256Y213622D01*
Y216378D01*
X375067Y217817D01*
X374511Y219158D01*
X373668Y220257D01*
Y243608D01*
X373854Y243685D01*
X375006Y244569D01*
X375889Y245720D01*
X376445Y247061D01*
X376634Y248500D01*
X376445Y249939D01*
X375889Y251280D01*
X375006Y252431D01*
X374268Y252997D01*
X374438Y253497D01*
X391292D01*
Y2409D01*
D02*
G37*
G36*
X351500Y245500D02*
Y218150D01*
X351410Y217469D01*
Y213531D01*
X351500Y212850D01*
Y205500D01*
X355000Y202000D01*
Y72421D01*
X354035Y71457D01*
X343504D01*
X341831Y73130D01*
Y237669D01*
X334500Y245000D01*
X151035D01*
X151000Y245007D01*
X84500D01*
X84465Y245000D01*
X76000D01*
Y235000D01*
X78500Y232500D01*
X90500D01*
X93000Y230000D01*
Y227000D01*
X90500Y224500D01*
X72000D01*
X68000Y228500D01*
X68000Y246500D01*
X73500Y252000D01*
X345000D01*
X351500Y245500D01*
D02*
G37*
%LPC*%
G36*
X281362Y211434D02*
X276638D01*
X275480Y211320D01*
X274367Y210982D01*
X273397Y210464D01*
X264603D01*
X263633Y210982D01*
X262520Y211320D01*
X261362Y211434D01*
X256638D01*
X255480Y211320D01*
X254367Y210982D01*
X253341Y210434D01*
X252442Y209696D01*
X251704Y208797D01*
X251155Y207771D01*
X250818Y206658D01*
X250704Y205500D01*
X250818Y204342D01*
X251155Y203229D01*
X251704Y202203D01*
X252442Y201304D01*
X253341Y200566D01*
X254367Y200018D01*
X255480Y199680D01*
X256638Y199566D01*
X261362D01*
X262520Y199680D01*
X263633Y200018D01*
X264603Y200536D01*
X273397D01*
X274367Y200018D01*
X275480Y199680D01*
X276638Y199566D01*
X281362D01*
X282520Y199680D01*
X283633Y200018D01*
X284659Y200566D01*
X285558Y201304D01*
X286296Y202203D01*
X286845Y203229D01*
X287182Y204342D01*
X287296Y205500D01*
X287182Y206658D01*
X286845Y207771D01*
X286296Y208797D01*
X285558Y209696D01*
X284659Y210434D01*
X283633Y210982D01*
X282520Y211320D01*
X281362Y211434D01*
D02*
G37*
G36*
X201362D02*
X196638D01*
X195480Y211320D01*
X194367Y210982D01*
X193397Y210464D01*
X184603D01*
X183633Y210982D01*
X182520Y211320D01*
X181362Y211434D01*
X176638D01*
X175480Y211320D01*
X174367Y210982D01*
X173341Y210434D01*
X172442Y209696D01*
X171704Y208797D01*
X171155Y207771D01*
X170818Y206658D01*
X170704Y205500D01*
X170818Y204342D01*
X171155Y203229D01*
X171704Y202203D01*
X172442Y201304D01*
X173029Y200822D01*
Y200178D01*
X172442Y199696D01*
X171704Y198797D01*
X171155Y197771D01*
X170818Y196658D01*
X170704Y195500D01*
X170818Y194342D01*
X171155Y193229D01*
X171704Y192203D01*
X172442Y191304D01*
X173029Y190822D01*
Y190178D01*
X172442Y189696D01*
X171704Y188797D01*
X171155Y187771D01*
X170818Y186658D01*
X170704Y185500D01*
X170818Y184342D01*
X171155Y183229D01*
X171704Y182203D01*
X172442Y181304D01*
X173029Y180822D01*
Y180178D01*
X172442Y179696D01*
X171704Y178797D01*
X171155Y177771D01*
X170818Y176658D01*
X170704Y175500D01*
X170818Y174342D01*
X171155Y173229D01*
X171704Y172203D01*
X172442Y171304D01*
X173029Y170822D01*
Y170178D01*
X172442Y169696D01*
X171704Y168797D01*
X171155Y167771D01*
X170818Y166658D01*
X170704Y165500D01*
X170818Y164342D01*
X171155Y163229D01*
X171704Y162203D01*
X172442Y161304D01*
X173029Y160822D01*
Y160178D01*
X172442Y159696D01*
X171704Y158797D01*
X171155Y157771D01*
X170818Y156658D01*
X170704Y155500D01*
X170818Y154342D01*
X171155Y153229D01*
X171704Y152203D01*
X172442Y151304D01*
X173029Y150822D01*
Y150178D01*
X172442Y149696D01*
X171704Y148797D01*
X171155Y147771D01*
X170818Y146658D01*
X170704Y145500D01*
X170818Y144342D01*
X171155Y143229D01*
X171704Y142203D01*
X172442Y141304D01*
X173029Y140822D01*
Y140178D01*
X172442Y139696D01*
X171704Y138797D01*
X171155Y137771D01*
X170818Y136658D01*
X170704Y135500D01*
X170818Y134342D01*
X171155Y133229D01*
X171704Y132203D01*
X172442Y131304D01*
X173029Y130822D01*
Y130178D01*
X172442Y129696D01*
X171931Y129074D01*
X164476D01*
X163551Y128952D01*
X162689Y128595D01*
X161949Y128027D01*
X150524Y116602D01*
X149956Y115862D01*
X149599Y115000D01*
X149477Y114075D01*
Y93130D01*
X134528Y78180D01*
X122847D01*
X122722Y78680D01*
X123179Y78924D01*
X124078Y79662D01*
X124816Y80562D01*
X125364Y81587D01*
X125702Y82701D01*
X125816Y83858D01*
Y88583D01*
X125702Y89740D01*
X125364Y90854D01*
X124816Y91879D01*
X124078Y92779D01*
X123853Y92963D01*
Y94477D01*
X124078Y94662D01*
X124816Y95561D01*
X125364Y96587D01*
X125702Y97701D01*
X125816Y98858D01*
Y103583D01*
X125702Y104740D01*
X125364Y105853D01*
X124816Y106879D01*
X124078Y107779D01*
X123179Y108517D01*
X122153Y109065D01*
X121040Y109403D01*
X119882Y109517D01*
X118724Y109403D01*
X117611Y109065D01*
X116585Y108517D01*
X115686Y107779D01*
X115204Y107192D01*
X114560D01*
X114078Y107779D01*
X113853Y107963D01*
Y132268D01*
X114224Y132752D01*
X114779Y134093D01*
X114969Y135532D01*
Y140256D01*
X114779Y141695D01*
X114224Y143036D01*
X113341Y144187D01*
X112189Y145071D01*
X110848Y145626D01*
X109409Y145815D01*
X107971Y145626D01*
X106630Y145071D01*
X105478Y144187D01*
X104791Y143291D01*
X104185D01*
X103498Y144187D01*
X102347Y145071D01*
X101006Y145626D01*
X99567Y145815D01*
X98128Y145626D01*
X96787Y145071D01*
X95636Y144187D01*
X94949Y143292D01*
X94343D01*
X93656Y144187D01*
X92504Y145071D01*
X91163Y145626D01*
X89724Y145815D01*
X88286Y145626D01*
X86945Y145071D01*
X85894Y144264D01*
X85394Y144419D01*
Y145768D01*
X74370D01*
Y130020D01*
X75911D01*
Y107963D01*
X75686Y107779D01*
X74948Y106879D01*
X74400Y105853D01*
X74062Y104740D01*
X73948Y103583D01*
Y98858D01*
X74062Y97701D01*
X74400Y96587D01*
X74918Y95617D01*
Y91824D01*
X74400Y90854D01*
X74062Y89740D01*
X73948Y88583D01*
Y83858D01*
X74062Y82701D01*
X74400Y81587D01*
X74948Y80562D01*
X75686Y79662D01*
X76585Y78924D01*
X77611Y78376D01*
X78724Y78038D01*
X79882Y77924D01*
X81040Y78038D01*
X82153Y78376D01*
X83179Y78924D01*
X84078Y79662D01*
X84560Y80249D01*
X85204D01*
X85686Y79662D01*
X86585Y78924D01*
X87611Y78376D01*
X88724Y78038D01*
X89882Y77924D01*
X91040Y78038D01*
X92153Y78376D01*
X93179Y78924D01*
X94078Y79662D01*
X94560Y80249D01*
X95204D01*
X95686Y79662D01*
X96585Y78924D01*
X97042Y78680D01*
X96917Y78180D01*
X94980D01*
X94980Y78180D01*
X94055Y78058D01*
X93193Y77701D01*
X92453Y77133D01*
X92453Y77133D01*
X59832Y44512D01*
X58724Y44403D01*
X57611Y44065D01*
X56585Y43517D01*
X55686Y42779D01*
X54948Y41879D01*
X54400Y40854D01*
X54062Y39740D01*
X53948Y38583D01*
Y33858D01*
X54062Y32701D01*
X54400Y31587D01*
X54918Y30617D01*
Y26824D01*
X54400Y25853D01*
X54062Y24740D01*
X53948Y23583D01*
Y18858D01*
X54062Y17701D01*
X54400Y16587D01*
X54948Y15562D01*
X55686Y14662D01*
X56585Y13924D01*
X57611Y13376D01*
X58724Y13038D01*
X59882Y12924D01*
X61040Y13038D01*
X62153Y13376D01*
X63179Y13924D01*
X64078Y14662D01*
X64560Y15249D01*
X65204D01*
X65686Y14662D01*
X66585Y13924D01*
X67611Y13376D01*
X68724Y13038D01*
X69882Y12924D01*
X71040Y13038D01*
X72153Y13376D01*
X73179Y13924D01*
X74078Y14662D01*
X74560Y15249D01*
X75204D01*
X75686Y14662D01*
X76585Y13924D01*
X77611Y13376D01*
X78724Y13038D01*
X79882Y12924D01*
X81040Y13038D01*
X82153Y13376D01*
X83179Y13924D01*
X84078Y14662D01*
X84560Y15249D01*
X85204D01*
X85686Y14662D01*
X86585Y13924D01*
X87611Y13376D01*
X88724Y13038D01*
X89882Y12924D01*
X91040Y13038D01*
X92153Y13376D01*
X93179Y13924D01*
X94078Y14662D01*
X94560Y15249D01*
X95204D01*
X95686Y14662D01*
X96585Y13924D01*
X97611Y13376D01*
X98724Y13038D01*
X99882Y12924D01*
X101040Y13038D01*
X102153Y13376D01*
X103179Y13924D01*
X104078Y14662D01*
X104560Y15249D01*
X105204D01*
X105686Y14662D01*
X106585Y13924D01*
X107611Y13376D01*
X108724Y13038D01*
X109882Y12924D01*
X111040Y13038D01*
X112153Y13376D01*
X113179Y13924D01*
X114078Y14662D01*
X114560Y15249D01*
X115204D01*
X115686Y14662D01*
X116585Y13924D01*
X117611Y13376D01*
X118724Y13038D01*
X119032Y13008D01*
X119200Y12789D01*
X123970Y8019D01*
X124792Y7388D01*
X125750Y6991D01*
X126778Y6856D01*
X136713D01*
X137740Y6991D01*
X138698Y7388D01*
X139521Y8019D01*
X162355Y30854D01*
X162986Y31676D01*
X163383Y32634D01*
X163518Y33661D01*
Y38316D01*
X170246Y45044D01*
X170767Y44857D01*
X170818Y44342D01*
X171155Y43229D01*
X171704Y42203D01*
X172442Y41304D01*
X173029Y40822D01*
Y40178D01*
X172442Y39696D01*
X171704Y38797D01*
X171155Y37771D01*
X170818Y36658D01*
X170704Y35500D01*
X170818Y34342D01*
X171155Y33229D01*
X171704Y32203D01*
X172442Y31304D01*
X173341Y30566D01*
X174367Y30018D01*
X175480Y29680D01*
X176638Y29566D01*
X181362D01*
X182520Y29680D01*
X183633Y30018D01*
X184603Y30536D01*
X193397D01*
X194367Y30018D01*
X195480Y29680D01*
X196638Y29566D01*
X201362D01*
X202520Y29680D01*
X203633Y30018D01*
X204659Y30566D01*
X205558Y31304D01*
X206296Y32203D01*
X206845Y33229D01*
X207182Y34342D01*
X207296Y35500D01*
X207182Y36658D01*
X206845Y37771D01*
X206296Y38797D01*
X205558Y39696D01*
X204971Y40178D01*
Y40822D01*
X205558Y41304D01*
X206296Y42203D01*
X206845Y43229D01*
X207182Y44342D01*
X207296Y45500D01*
X207182Y46658D01*
X206845Y47771D01*
X206296Y48797D01*
X205558Y49696D01*
X204971Y50178D01*
Y50822D01*
X205558Y51304D01*
X206296Y52203D01*
X206845Y53229D01*
X207182Y54342D01*
X207296Y55500D01*
X207182Y56658D01*
X206845Y57771D01*
X206296Y58797D01*
X205558Y59696D01*
X204971Y60178D01*
Y60822D01*
X205558Y61304D01*
X206296Y62203D01*
X206845Y63229D01*
X207182Y64342D01*
X207296Y65500D01*
X207182Y66658D01*
X206845Y67771D01*
X206296Y68797D01*
X205558Y69696D01*
X204971Y70178D01*
Y70822D01*
X205558Y71304D01*
X206296Y72203D01*
X206845Y73229D01*
X207182Y74342D01*
X207296Y75500D01*
X207182Y76658D01*
X206845Y77771D01*
X206296Y78797D01*
X205558Y79696D01*
X204971Y80178D01*
Y80822D01*
X205558Y81304D01*
X206296Y82203D01*
X206845Y83229D01*
X207182Y84342D01*
X207296Y85500D01*
X207182Y86658D01*
X206845Y87771D01*
X206296Y88797D01*
X205558Y89696D01*
X204971Y90178D01*
Y90822D01*
X205558Y91304D01*
X206296Y92203D01*
X206845Y93229D01*
X207182Y94342D01*
X207296Y95500D01*
X207182Y96658D01*
X206845Y97771D01*
X206296Y98797D01*
X205558Y99696D01*
X204971Y100178D01*
Y100822D01*
X205558Y101304D01*
X206296Y102203D01*
X206845Y103229D01*
X207182Y104342D01*
X207296Y105500D01*
X207182Y106658D01*
X206845Y107771D01*
X206296Y108797D01*
X205558Y109696D01*
X204971Y110178D01*
Y110822D01*
X205558Y111304D01*
X206296Y112203D01*
X206845Y113229D01*
X207182Y114342D01*
X207296Y115500D01*
X207182Y116658D01*
X206845Y117771D01*
X206296Y118797D01*
X205558Y119696D01*
X204971Y120178D01*
Y120822D01*
X205558Y121304D01*
X206296Y122203D01*
X206845Y123229D01*
X207182Y124342D01*
X207296Y125500D01*
X207182Y126658D01*
X206845Y127771D01*
X206296Y128797D01*
X205558Y129696D01*
X204971Y130178D01*
Y130822D01*
X205558Y131304D01*
X206296Y132203D01*
X206845Y133229D01*
X207182Y134342D01*
X207296Y135500D01*
X207182Y136658D01*
X206845Y137771D01*
X206296Y138797D01*
X205558Y139696D01*
X204971Y140178D01*
Y140822D01*
X205558Y141304D01*
X206296Y142203D01*
X206845Y143229D01*
X207182Y144342D01*
X207296Y145500D01*
X207182Y146658D01*
X206845Y147771D01*
X206296Y148797D01*
X205558Y149696D01*
X204971Y150178D01*
Y150822D01*
X205558Y151304D01*
X206296Y152203D01*
X206845Y153229D01*
X207182Y154342D01*
X207296Y155500D01*
X207182Y156658D01*
X206845Y157771D01*
X206296Y158797D01*
X205558Y159696D01*
X204971Y160178D01*
Y160822D01*
X205558Y161304D01*
X206296Y162203D01*
X206845Y163229D01*
X207182Y164342D01*
X207296Y165500D01*
X207182Y166658D01*
X206845Y167771D01*
X206296Y168797D01*
X205558Y169696D01*
X204971Y170178D01*
Y170822D01*
X205558Y171304D01*
X206296Y172203D01*
X206845Y173229D01*
X207182Y174342D01*
X207296Y175500D01*
X207182Y176658D01*
X206845Y177771D01*
X206296Y178797D01*
X205558Y179696D01*
X204971Y180178D01*
Y180822D01*
X205558Y181304D01*
X206296Y182203D01*
X206845Y183229D01*
X207182Y184342D01*
X207296Y185500D01*
X207182Y186658D01*
X206845Y187771D01*
X206296Y188797D01*
X205558Y189696D01*
X204971Y190178D01*
Y190822D01*
X205558Y191304D01*
X206296Y192203D01*
X206845Y193229D01*
X207182Y194342D01*
X207296Y195500D01*
X207182Y196658D01*
X206845Y197771D01*
X206296Y198797D01*
X205558Y199696D01*
X204971Y200178D01*
Y200822D01*
X205558Y201304D01*
X206296Y202203D01*
X206845Y203229D01*
X207182Y204342D01*
X207296Y205500D01*
X207182Y206658D01*
X206845Y207771D01*
X206296Y208797D01*
X205558Y209696D01*
X204659Y210434D01*
X203633Y210982D01*
X202520Y211320D01*
X201362Y211434D01*
D02*
G37*
G36*
X31063Y188433D02*
X28307D01*
X26868Y188244D01*
X25527Y187689D01*
X24376Y186805D01*
X23493Y185654D01*
X22937Y184313D01*
X22748Y182874D01*
X22792Y182541D01*
X15676Y175426D01*
X15045Y174604D01*
X14649Y173646D01*
X14513Y172618D01*
Y166301D01*
X14327Y166224D01*
X13175Y165340D01*
X12292Y164189D01*
X11736Y162848D01*
X11547Y161409D01*
X11736Y159970D01*
X12292Y158629D01*
X13175Y157478D01*
X14327Y156595D01*
X15667Y156039D01*
X17106Y155850D01*
X19862D01*
X21301Y156039D01*
X22642Y156595D01*
X23793Y157478D01*
X24677Y158629D01*
X25232Y159970D01*
X25422Y161409D01*
X25232Y162848D01*
X24677Y164189D01*
X23793Y165340D01*
X22642Y166224D01*
X22455Y166301D01*
Y170973D01*
X28797Y177315D01*
X31063D01*
X32502Y177504D01*
X33843Y178059D01*
X34994Y178943D01*
X35877Y180094D01*
X36433Y181435D01*
X36622Y182874D01*
X36433Y184313D01*
X35877Y185654D01*
X34994Y186805D01*
X33843Y187689D01*
X32502Y188244D01*
X31063Y188433D01*
D02*
G37*
G36*
X369697Y38433D02*
X368258Y38244D01*
X366917Y37689D01*
X365766Y36805D01*
X364882Y35654D01*
X364805Y35467D01*
X359496D01*
X358468Y35332D01*
X357511Y34935D01*
X356688Y34304D01*
X351855Y29471D01*
X335316D01*
X334217Y30315D01*
X332876Y30870D01*
X331437Y31059D01*
X328681D01*
X327242Y30870D01*
X325901Y30315D01*
X324750Y29431D01*
X323867Y28280D01*
X323311Y26939D01*
X323122Y25500D01*
X323311Y24061D01*
X323867Y22720D01*
X324750Y21569D01*
X325757Y20796D01*
X325798Y20661D01*
Y20339D01*
X325757Y20204D01*
X324750Y19431D01*
X323867Y18280D01*
X323311Y16939D01*
X323122Y15500D01*
X323311Y14061D01*
X323867Y12720D01*
X324750Y11569D01*
X325901Y10685D01*
X327242Y10130D01*
X328681Y9941D01*
X331437D01*
X332876Y10130D01*
X334217Y10685D01*
X335316Y11529D01*
X364805D01*
X364882Y11342D01*
X365766Y10191D01*
X366917Y9307D01*
X368258Y8752D01*
X369697Y8563D01*
X371136Y8752D01*
X372477Y9307D01*
X373628Y10191D01*
X374511Y11342D01*
X375067Y12683D01*
X375256Y14122D01*
Y16878D01*
X375067Y18317D01*
X374511Y19658D01*
X373628Y20809D01*
X372477Y21692D01*
X371136Y22248D01*
X369697Y22437D01*
X368258Y22248D01*
X366917Y21692D01*
X365766Y20809D01*
X364882Y19658D01*
X364805Y19471D01*
X335316D01*
X334361Y20204D01*
X334320Y20339D01*
Y20661D01*
X334361Y20796D01*
X335316Y21529D01*
X353500D01*
X354528Y21664D01*
X355486Y22061D01*
X356308Y22692D01*
X361141Y27525D01*
X364805D01*
X364882Y27338D01*
X365766Y26187D01*
X366917Y25304D01*
X368258Y24748D01*
X369697Y24559D01*
X371136Y24748D01*
X372477Y25304D01*
X373628Y26187D01*
X374511Y27338D01*
X375067Y28679D01*
X375256Y30118D01*
Y32874D01*
X375067Y34313D01*
X374511Y35654D01*
X373628Y36805D01*
X372477Y37689D01*
X371136Y38244D01*
X369697Y38433D01*
D02*
G37*
%LPD*%
D10*
X18484Y161409D02*
Y172618D01*
X28740Y182874D01*
X29685D01*
X146293Y36220D02*
X168764Y58691D01*
Y58762D02*
X173376Y63374D01*
X168764Y58691D02*
Y58762D01*
X129882Y36220D02*
X146293D01*
X173376Y63374D02*
X173447D01*
X175572Y65500D01*
X179000D01*
X173604Y53531D02*
X175572Y55500D01*
X159547Y39961D02*
X173118Y53531D01*
X175572Y55500D02*
X179000D01*
X159547Y33661D02*
Y39961D01*
X173118Y53531D02*
X173604D01*
X126778Y10827D02*
X136713D01*
X122008Y15597D02*
X126778Y10827D01*
X136713D02*
X159547Y33661D01*
X119882Y17793D02*
X122008Y15667D01*
X119882Y17793D02*
Y21220D01*
X122008Y15597D02*
Y15667D01*
X117520Y47539D02*
X147244D01*
X111850Y41870D02*
X117520Y47539D01*
X109882Y36220D02*
Y39648D01*
X111850Y41616D02*
Y41870D01*
X109882Y39648D02*
X111850Y41616D01*
X147244Y47539D02*
X173236Y73532D01*
X175572Y75500D02*
X179000D01*
X173604Y73532D02*
X175572Y75500D01*
X173236Y73532D02*
X173604D01*
X119882Y86221D02*
Y101221D01*
X330059Y15500D02*
X369697D01*
X359496Y31496D02*
X369697D01*
X353500Y25500D02*
X359496Y31496D01*
X330059Y25500D02*
X353500D01*
X79882Y101221D02*
Y137894D01*
X89882Y101221D02*
Y137736D01*
X99567Y137894D02*
X99882Y137579D01*
Y101221D02*
Y137579D01*
X99882Y86221D02*
X99882Y86221D01*
Y101221D01*
X109409Y137894D02*
X109882Y137421D01*
Y86221D02*
Y137421D01*
X279000Y15500D02*
X299862D01*
X279000Y25500D02*
X299862D01*
X279000Y75500D02*
X333500D01*
X279000Y85500D02*
X333500D01*
X279000Y95500D02*
X333500D01*
X279000Y105500D02*
X333500D01*
X279000Y115500D02*
X333500D01*
X279000Y125500D02*
X333500D01*
X369697Y215000D02*
Y248500D01*
D11*
X59882Y36220D02*
Y39508D01*
X94980Y74606D02*
X136008D01*
X59882Y39508D02*
X94980Y74606D01*
X136008D02*
X153051Y91649D01*
Y114075D02*
X164476Y125500D01*
X177524D01*
X153051Y91649D02*
Y114075D01*
X165303Y115500D02*
X179000D01*
X158169Y89529D02*
Y108366D01*
X165303Y115500D01*
X163287Y92728D02*
X176059Y105500D01*
X139953Y64075D02*
X163287Y87409D01*
Y92728D01*
X138128Y69488D02*
X158169Y89529D01*
X69882Y39161D02*
X100209Y69488D01*
X138128D01*
X79882Y39161D02*
X104795Y64075D01*
X139953D01*
X109480Y58760D02*
X141876D01*
X169158Y86041D01*
X89882Y39162D02*
X109480Y58760D01*
X143701Y53347D02*
X175854Y85500D01*
X99882Y39744D02*
X113484Y53347D01*
X143701D01*
X169158Y86041D02*
Y88598D01*
X176059Y95500D01*
X179000D01*
X99882Y36220D02*
Y39744D01*
X175854Y85500D02*
X179000D01*
X69882Y36220D02*
Y39161D01*
X79882Y36220D02*
Y39161D01*
X176059Y105500D02*
X179000D01*
X89882Y36220D02*
Y39162D01*
D12*
X119882Y21220D02*
Y36220D01*
X79882Y86221D02*
Y101221D01*
X89882Y86221D02*
Y101221D01*
X99882Y86221D02*
Y101221D01*
X109882Y86221D02*
Y101221D01*
X179000Y205500D02*
X199000D01*
X259000D02*
X279000D01*
X259000Y195500D02*
X279000D01*
X259000Y175500D02*
X279000D01*
X259000Y165500D02*
X279000D01*
X259000Y155500D02*
X279000D01*
X259000Y145500D02*
X279000D01*
X259000Y135500D02*
X279000D01*
X179000Y185500D02*
X199000D01*
X179000Y195500D02*
X199000D01*
X179000Y175500D02*
X199000D01*
X179000Y165500D02*
X199000D01*
X179000Y155500D02*
X199000D01*
X179000Y145500D02*
X199000D01*
X179000Y135500D02*
X199000D01*
X179000Y125500D02*
X199000D01*
X59882Y21220D02*
Y36220D01*
X69882Y21220D02*
Y36220D01*
X179000Y115500D02*
X199000D01*
X179000Y105500D02*
X199000D01*
X79882Y21220D02*
Y36220D01*
X89882Y21220D02*
Y36220D01*
X179000Y95500D02*
X199000D01*
X99882Y36220D02*
X99882Y36220D01*
Y21220D02*
Y36220D01*
X179000Y85500D02*
X199000D01*
X109882Y21220D02*
Y36220D01*
X179000Y75500D02*
X199000D01*
X179000Y65500D02*
X199000D01*
X179000Y55500D02*
X199000D01*
X129882Y21220D02*
Y36220D01*
X179000Y45500D02*
X199000D01*
X179000Y35500D02*
X199000D01*
X179000Y25500D02*
X199000D01*
X179000Y15500D02*
X199000D01*
X259000Y65500D02*
X279000D01*
X259000Y55500D02*
X279000D01*
X259000Y45500D02*
X279000D01*
X259000Y35500D02*
X279000D01*
X259000Y15500D02*
X279000D01*
X259000Y25500D02*
X279000D01*
X259000Y75500D02*
X279000D01*
X259000Y85500D02*
X279000D01*
X259000Y95500D02*
X279000D01*
X259000Y105500D02*
X279000D01*
X259000Y115500D02*
X279000D01*
X259000Y125500D02*
X279000D01*
X328500Y185500D02*
X334000Y191000D01*
Y220000D01*
X148000Y228500D02*
X325500D01*
X259000Y185500D02*
X279000D01*
X305500D02*
X328500D01*
X325500Y228500D02*
X334000Y220000D01*
X279000Y185500D02*
X305500D01*
D13*
X369697Y248500D02*
D03*
X339500D02*
D03*
X330059Y25500D02*
D03*
X299862D02*
D03*
X330059Y15500D02*
D03*
X299862Y15500D02*
D03*
X59882Y182874D02*
D03*
X29685Y182874D02*
D03*
D14*
X369697Y15500D02*
D03*
Y31496D02*
D03*
Y215000D02*
D03*
D15*
X379697Y15500D02*
D03*
Y31496D02*
D03*
X379697Y215000D02*
D03*
D16*
X259000Y195500D02*
D03*
Y205500D02*
D03*
Y185500D02*
D03*
Y175500D02*
D03*
Y55500D02*
D03*
Y45500D02*
D03*
Y35500D02*
D03*
Y25500D02*
D03*
Y15500D02*
D03*
Y95500D02*
D03*
Y65500D02*
D03*
Y75500D02*
D03*
Y105500D02*
D03*
Y85500D02*
D03*
Y115500D02*
D03*
Y125500D02*
D03*
Y165500D02*
D03*
Y145500D02*
D03*
Y155500D02*
D03*
Y135500D02*
D03*
X179000D02*
D03*
Y145500D02*
D03*
Y155500D02*
D03*
Y165500D02*
D03*
Y175500D02*
D03*
Y185500D02*
D03*
Y195500D02*
D03*
Y205500D02*
D03*
X279000Y195500D02*
D03*
Y205500D02*
D03*
Y185500D02*
D03*
Y175500D02*
D03*
Y55500D02*
D03*
Y45500D02*
D03*
Y35500D02*
D03*
Y25500D02*
D03*
Y15500D02*
D03*
Y95500D02*
D03*
Y65500D02*
D03*
Y75500D02*
D03*
Y105500D02*
D03*
Y85500D02*
D03*
Y115500D02*
D03*
Y125500D02*
D03*
Y165500D02*
D03*
Y145500D02*
D03*
Y155500D02*
D03*
Y135500D02*
D03*
X199000D02*
D03*
Y145500D02*
D03*
Y155500D02*
D03*
Y165500D02*
D03*
Y175500D02*
D03*
Y185500D02*
D03*
Y195500D02*
D03*
Y205500D02*
D03*
X179000Y25500D02*
D03*
Y35500D02*
D03*
Y45500D02*
D03*
X199000Y25500D02*
D03*
Y35500D02*
D03*
Y45500D02*
D03*
Y15500D02*
D03*
X179000D02*
D03*
X199000Y55500D02*
D03*
X179000D02*
D03*
X199000Y65500D02*
D03*
X179000D02*
D03*
X199000Y75500D02*
D03*
X179000D02*
D03*
X199000Y85500D02*
D03*
X179000D02*
D03*
X199000Y95500D02*
D03*
X179000D02*
D03*
X199000Y105500D02*
D03*
X179000D02*
D03*
X199000Y115500D02*
D03*
X179000D02*
D03*
X199000Y125500D02*
D03*
X179000D02*
D03*
X348500Y95500D02*
D03*
X333500Y115500D02*
D03*
Y125500D02*
D03*
X363500Y105500D02*
D03*
Y95500D02*
D03*
X348500Y105500D02*
D03*
Y115500D02*
D03*
X363500D02*
D03*
X333500Y105500D02*
D03*
Y95500D02*
D03*
X363500Y125500D02*
D03*
X348500D02*
D03*
X363500Y75500D02*
D03*
X348500Y85500D02*
D03*
X363500D02*
D03*
X333500D02*
D03*
X348500Y75500D02*
D03*
X333500D02*
D03*
X368185Y168382D02*
D03*
X40197Y155512D02*
D03*
D17*
X303150Y185658D02*
D03*
D18*
Y205343D02*
D03*
X368342Y139256D02*
D03*
Y197606D02*
D03*
X40039Y118110D02*
D03*
D19*
X322500Y193374D02*
D03*
X111024Y230626D02*
D03*
X131890D02*
D03*
D20*
X322500Y185500D02*
D03*
X111024Y238500D02*
D03*
X131890D02*
D03*
D21*
X348657Y139256D02*
D03*
Y197606D02*
D03*
X59724Y118110D02*
D03*
D22*
X348500Y168382D02*
D03*
X59882Y155512D02*
D03*
D23*
X348500Y215500D02*
D03*
D24*
X356374D02*
D03*
D25*
X59882Y101221D02*
D03*
X69882D02*
D03*
X79882D02*
D03*
X89882D02*
D03*
X99882D02*
D03*
X109882D02*
D03*
X119882D02*
D03*
X129882D02*
D03*
X59882Y86221D02*
D03*
X69882D02*
D03*
X79882D02*
D03*
X89882D02*
D03*
X99882D02*
D03*
X109882D02*
D03*
X119882D02*
D03*
X129882D02*
D03*
Y21220D02*
D03*
X119882D02*
D03*
X109882D02*
D03*
X99882D02*
D03*
X89882D02*
D03*
X79882D02*
D03*
X69882D02*
D03*
X59882D02*
D03*
X129882Y36220D02*
D03*
X119882D02*
D03*
X109882D02*
D03*
X99882D02*
D03*
X89882D02*
D03*
X79882D02*
D03*
X69882D02*
D03*
X59882D02*
D03*
D26*
X99567Y137894D02*
D03*
X109409D02*
D03*
X89724D02*
D03*
D27*
X79882D02*
D03*
D28*
X22000Y203500D02*
D03*
Y243500D02*
D03*
Y223500D02*
D03*
D29*
X57500Y228500D02*
D03*
Y238500D02*
D03*
X87500D02*
D03*
Y228500D02*
D03*
X18484Y161409D02*
D03*
D30*
X18484Y151409D02*
D03*
D31*
X148000Y218500D02*
D03*
Y228500D02*
D03*
Y238500D02*
D03*
M02*
